<svg id="Ebene_1" data-name="Ebene 1" xmlns="http://www.w3.org/2000/svg" viewBox="0 0 1026.11911 198.66031"><defs><style>.cls-1{fill:#23ad4a;stroke-width:6px;}.cls-1,.cls-2{stroke:#23ad4a;stroke-miterlimit:10;}.cls-2{fill:none;stroke-width:12px;}</style></defs><title>logo</title><path class="cls-1" d="M425.29541,611.43945l-12.79687-32.69531H371.29541l-12.65625,32.69531H346.54541L387.186,508.2207h10.05468l40.42969,103.21875ZM408.772,567.98633l-11.95312-31.85156q-2.32032-6.04615-4.78125-14.83594a133.37,133.37,0,0,1-4.42969,14.83594l-12.09375,31.85156Z" transform="translate(-342.14005 -499.0332)"/><path class="cls-1" d="M488.18652,612.8457q-16.73509,0-25.91015-10.30078-9.17578-10.29931-9.17578-29.14453,0-19.33521,9.3164-29.88281,9.31567-10.54687,26.543-10.54688a52.71415,52.71415,0,0,1,11.10938,1.19532,36.67889,36.67889,0,0,1,8.71875,2.8125l-3.58594,9.91406a55.07678,55.07678,0,0,0-8.4375-2.56641,37.74587,37.74587,0,0,0-8.08594-1.01953q-23.48511,0-23.48437,29.95313,0,14.20385,5.73046,21.79687,5.72974,7.59375,16.98047,7.59375a51.90132,51.90132,0,0,0,19.75782-4.14844v10.33594Q499.92725,612.84571,488.18652,612.8457Z" transform="translate(-342.14005 -499.0332)"/><path class="cls-1" d="M558.17871,603.21289a38.02453,38.02453,0,0,0,5.97656-.457,38.51036,38.51036,0,0,0,4.57032-.94922v8.92969a21.337,21.337,0,0,1-5.58985,1.51172,42.09343,42.09343,0,0,1-6.64453.59765q-22.35937,0-22.35937-23.55468V543.44727H523.09277v-5.625l11.03907-4.85157,4.92187-16.45312h6.75V534.377h22.35938v9.07032H545.80371v45.35156q0,6.96093,3.30469,10.6875A11.49552,11.49552,0,0,0,558.17871,603.21289Z" transform="translate(-342.14005 -499.0332)"/><path class="cls-1" d="M590.48389,513.49414q0-4.00781,1.96875-5.87109a7.28819,7.28819,0,0,1,9.77343.03515q2.03833,1.89844,2.03907,5.83594,0,3.939-2.03907,5.87109a6.8083,6.8083,0,0,1-4.85156,1.9336,6.7363,6.7363,0,0,1-4.92187-1.9336Q590.48315,517.43237,590.48389,513.49414Zm12.65625,97.94531H591.46826V534.377h11.67188Z" transform="translate(-342.14005 -499.0332)"/><path class="cls-1" d="M652.10889,611.43945l-29.25-77.0625h12.51562l16.59375,45.70313q5.62427,16.03125,6.60938,20.8125h.5625a157.10152,157.10152,0,0,1,4.88672-15.4336q4.11327-11.707,18.457-51.082h12.51562l-29.25,77.0625Z" transform="translate(-342.14005 -499.0332)"/><path class="cls-1" d="M713.73438,513.49414q0-4.00781,1.96875-5.87109a7.28819,7.28819,0,0,1,9.77343.03515q2.03834,1.89844,2.03907,5.83594,0,3.939-2.03907,5.87109a6.80832,6.80832,0,0,1-4.85156,1.9336,6.7363,6.7363,0,0,1-4.92187-1.9336Q713.73365,517.43237,713.73438,513.49414Zm12.65625,97.94531H714.71875V534.377h11.67188Z" transform="translate(-342.14005 -499.0332)"/><path class="cls-1" d="M791.88281,611.43945H779.92969V519.25977H747.375V508.64258h77.0625v10.61719H791.88281Z" transform="translate(-342.14005 -499.0332)"/><path class="cls-1" d="M880.64844,532.9707a45.6781,45.6781,0,0,1,9.21094.84375l-1.61719,10.82813a39.77342,39.77342,0,0,0-8.4375-1.05469q-9.35157,0-15.9961,7.59375t-6.64453,18.91406v41.34375H845.49219V534.377H855.125l1.33594,14.27344h.5625a33.86459,33.86459,0,0,1,10.33594-11.60156A23.27479,23.27479,0,0,1,880.64844,532.9707Z" transform="translate(-342.14005 -499.0332)"/><path class="cls-1" d="M959.00781,611.43945,956.6875,600.4707h-.5625q-5.76562,7.24293-11.49609,9.8086a35.05213,35.05213,0,0,1-14.3086,2.5664q-11.46093,0-17.96484-5.90625t-6.50391-16.80468q0-23.343,37.33594-24.46875l13.07813-.42188v-4.78125q0-9.0703-3.90235-13.39453t-12.48047-4.32422q-9.63427,0-21.79687,5.90625L914.5,539.7207a54.8744,54.8744,0,0,1,12.48047-4.85156,54.09833,54.09833,0,0,1,13.60547-1.75781q13.77978,0,20.42578,6.11719,6.64454,6.11718,6.64453,19.61718v52.59375Zm-26.36718-8.22656q10.89843,0,17.12109-5.97656,6.22266-5.9751,6.22266-16.73438V573.541l-11.67188.49218q-13.92187.49293-20.07422,4.32422-6.15381,3.8335-6.15234,11.918,0,6.32813,3.832,9.63281Q925.75,603.21435,932.64063,603.21289Z" transform="translate(-342.14005 -499.0332)"/><path class="cls-1" d="M1029.84375,612.8457q-16.73437,0-25.91016-10.30078-9.17577-10.29931-9.17578-29.14453,0-19.33521,9.31641-29.88281,9.31641-10.54687,26.543-10.54688a52.71053,52.71053,0,0,1,11.10937,1.19532,36.67858,36.67858,0,0,1,8.71875,2.8125l-3.58593,9.91406a55.044,55.044,0,0,0-8.4375-2.56641,37.74226,37.74226,0,0,0-8.08594-1.01953q-23.48437,0-23.48438,29.95313,0,14.20385,5.73047,21.79687,5.73046,7.59375,16.98047,7.59375a51.89939,51.89939,0,0,0,19.75781-4.14844v10.33594Q1041.58448,612.84571,1029.84375,612.8457Z" transform="translate(-342.14005 -499.0332)"/><path class="cls-1" d="M1086.47754,571.99414a137.22028,137.22028,0,0,1,9.21094-11.25L1120.5791,534.377h13.85156l-31.21875,32.83594,33.39844,44.22656h-14.13281l-27.21094-36.42187-8.78906,7.59375v28.82812h-11.53125V502.0332h11.53125V560.041q0,3.86792-.5625,11.95312Z" transform="translate(-342.14005 -499.0332)"/><path class="cls-1" d="M1190.43066,612.8457q-17.08593,0-26.96484-10.40625-9.87891-10.40478-9.87891-28.89843,0-18.63135,9.17579-29.60157,9.17577-10.96875,24.64453-10.96875,14.48438,0,22.92187,9.52735,8.4375,9.52881,8.4375,25.13672v7.38281h-53.08594q.35157,13.571,6.85547,20.60156,6.50244,7.032,18.31641,7.03125a62.05632,62.05632,0,0,0,24.60937-5.20312v10.40625a61.698,61.698,0,0,1-11.707,3.832A65.79785,65.79785,0,0,1,1190.43066,612.8457Zm-3.16406-70.10156q-9.28125,0-14.80078,6.04688-5.521,6.04833-6.50391,16.73437H1206.251q0-11.0376-4.92188-16.91016Q1196.40723,542.74561,1187.2666,542.74414Z" transform="translate(-342.14005 -499.0332)"/><path class="cls-1" d="M1281.165,532.9707a45.6781,45.6781,0,0,1,9.21094.84375l-1.61719,10.82813a39.77342,39.77342,0,0,0-8.4375-1.05469q-9.35157,0-15.99609,7.59375t-6.64454,18.91406v41.34375h-11.67187V534.377h9.63281l1.33594,14.27344h.5625a33.86459,33.86459,0,0,1,10.33594-11.60156A23.27479,23.27479,0,0,1,1281.165,532.9707Z" transform="translate(-342.14005 -499.0332)"/><path class="cls-2" d="M1362.49879,541.30538c-6.74508,23.14453-21.43772,60.31737-55.67675,87.58407-36.07059,28.72537-77.01633,33.06276-97.40592,34.78205-86.035,7.25472-416.46072,19.365-865.91491,28.02312" transform="translate(-342.14005 -499.0332)"/></svg>