<svg id="Ebene_1" data-name="Ebene 1" xmlns="http://www.w3.org/2000/svg" viewBox="0 0 951.93 202"><defs><style>.cls-1{fill:#0d25ff;stroke:#0d25ff;stroke-width:6px;}.cls-1,.cls-2{stroke-miterlimit:10;}.cls-2{fill:none;stroke:#23ad4a;stroke-width:12px;}</style></defs><title>activitracker</title><path class="cls-1" d="M373.19,573.71,363.1,604.24h-13l33-97.06h15.12l33.12,97.06H418L407.6,573.71ZM405,563.92,395.5,536c-2.16-6.33-3.6-12.09-5-17.71h-.28c-1.44,5.76-3,11.67-4.9,17.57l-9.5,28.08Z" transform="translate(-343.84 -499)"/><path class="cls-1" d="M500.48,601.65c-3.31,1.73-10.65,4-20,4-21,0-34.71-14.26-34.71-35.57s14.69-37,37.44-37a42.51,42.51,0,0,1,17.57,3.6l-2.88,9.8c-3-1.73-7.78-3.32-14.69-3.32-16,0-24.62,11.81-24.62,26.36,0,16.12,10.37,26.06,24.19,26.06a35.89,35.89,0,0,0,15.55-3.46Z" transform="translate(-343.84 -499)"/><path class="cls-1" d="M539.79,514.53v20h18.15v9.65H539.79v37.59c0,8.64,2.45,13.53,9.51,13.53a28.26,28.26,0,0,0,7.34-.86l.58,9.5A31,31,0,0,1,546,605.68c-5.9,0-10.65-1.87-13.68-5.33-3.6-3.74-4.89-9.93-4.89-18.14v-38h-10.8v-9.65h10.8v-16.7Z" transform="translate(-343.84 -499)"/><path class="cls-1" d="M593.65,515c.14,4.32-3,7.78-8.07,7.78A7.54,7.54,0,0,1,578,515a7.72,7.72,0,0,1,7.92-7.92C590.62,507,593.65,510.5,593.65,515Zm-14.11,89.28v-69.7h12.67v69.7Z" transform="translate(-343.84 -499)"/><path class="cls-1" d="M625.47,534.54l13.68,39.17a180.58,180.58,0,0,1,5.61,17.86h.44c1.58-5.76,3.6-11.52,5.9-17.86l13.54-39.17h13.24l-27.36,69.7H638.43l-26.5-69.7Z" transform="translate(-343.84 -499)"/><path class="cls-1" d="M711.29,515c.15,4.32-3,7.78-8.06,7.78A7.53,7.53,0,0,1,695.6,515a7.72,7.72,0,0,1,7.92-7.92C708.27,507,711.29,510.5,711.29,515Zm-14.11,89.28v-69.7h12.67v69.7Z" transform="translate(-343.84 -499)"/><path class="cls-1" d="M757.08,517.84H727.56V507.18h71.86v10.66H769.75v86.4H757.08Z" transform="translate(-343.84 -499)"/><path class="cls-1" d="M810.65,556.29c0-8.21-.14-15.27-.58-21.75h11.09l.43,13.68h.58c3.17-9.36,10.8-15.26,19.3-15.26a13.67,13.67,0,0,1,3.6.43v12a19.59,19.59,0,0,0-4.32-.43c-8.93,0-15.27,6.77-17,16.27a36.69,36.69,0,0,0-.57,5.91v37.15H810.65Z" transform="translate(-343.84 -499)"/><path class="cls-1" d="M903,604.24l-1-8.78h-.44c-3.88,5.47-11.37,10.36-21.31,10.36-14.11,0-21.31-9.93-21.31-20,0-16.85,15-26.07,41.9-25.92v-1.44c0-5.76-1.58-16.13-15.84-16.13a34.79,34.79,0,0,0-18.14,5.18l-2.88-8.35c5.76-3.74,14.11-6.19,22.9-6.19,21.31,0,26.49,14.54,26.49,28.51v26.07a98.55,98.55,0,0,0,1.15,16.7Zm-1.87-35.57c-13.82-.29-29.52,2.16-29.52,15.7,0,8.21,5.47,12.09,12,12.09a17.33,17.33,0,0,0,16.85-11.66,13.33,13.33,0,0,0,.72-4Z" transform="translate(-343.84 -499)"/><path class="cls-1" d="M990.79,601.65c-3.31,1.73-10.65,4-20,4-21,0-34.71-14.26-34.71-35.57s14.69-37,37.44-37a42.51,42.51,0,0,1,17.57,3.6l-2.88,9.8c-3-1.73-7.78-3.32-14.69-3.32-16,0-24.62,11.81-24.62,26.36,0,16.12,10.37,26.06,24.19,26.06a35.89,35.89,0,0,0,15.55-3.46Z" transform="translate(-343.84 -499)"/><path class="cls-1" d="M1025.5,566.51h.29c1.72-2.45,4.17-5.47,6.19-7.92l20.44-24.05h15.27l-26.93,28.66,30.67,41H1056l-24-33.41-6.48,7.2v26.21H1013V502h12.53Z" transform="translate(-343.84 -499)"/><path class="cls-1" d="M1094.9,571.7c.29,17.13,11.24,24.19,23.91,24.19,9.07,0,14.54-1.59,19.29-3.6l2.16,9.07c-4.46,2-12.09,4.32-23.18,4.32-21.45,0-34.27-14.11-34.27-35.14S1095.19,533,1115.5,533c22.75,0,28.8,20,28.8,32.83a46.52,46.52,0,0,1-.44,5.91Zm37.16-9.08c.14-8.06-3.32-20.59-17.57-20.59-12.82,0-18.43,11.81-19.44,20.59Z" transform="translate(-343.84 -499)"/><path class="cls-1" d="M1167.33,556.29c0-8.21-.14-15.27-.57-21.75h11.09l.43,13.68h.57c3.17-9.36,10.8-15.26,19.3-15.26a13.62,13.62,0,0,1,3.6.43v12a19.53,19.53,0,0,0-4.32-.43c-8.93,0-15.26,6.77-17,16.27a35.53,35.53,0,0,0-.58,5.91v37.15h-12.53Z" transform="translate(-343.84 -499)"/><path class="cls-2" d="M1290,548c-6.13,21.71-19.56,56.6-51.21,82.34-33.35,27.12-71.37,31.43-90.3,33.16C1068.58,670.82,761.6,684.16,344,695" transform="translate(-343.84 -499)"/></svg>