<svg id="Ebene_1" data-name="Ebene 1" xmlns="http://www.w3.org/2000/svg" viewBox="0 0 1026.12 198.66"><defs><style>.cls-1{fill:#0d25ff;stroke:#0d25ff;stroke-width:6px;}.cls-1,.cls-2{stroke-miterlimit:10;}.cls-2{fill:none;stroke:#23ad4a;stroke-width:12px;}</style></defs><title>activitracker</title><path class="cls-1" d="M425.3,611.44l-12.8-32.7H371.3l-12.66,32.7H346.55l40.64-103.22h10.05l40.43,103.22ZM408.77,568l-11.95-31.86q-2.32-6-4.78-14.83a132.63,132.63,0,0,1-4.43,14.83L375.51,568Z" transform="translate(-342.14 -499.03)"/><path class="cls-1" d="M488.19,612.85q-16.74,0-25.91-10.31T453.1,573.4q0-19.33,9.32-29.88T489,533a52.48,52.48,0,0,1,11.11,1.2,36.28,36.28,0,0,1,8.72,2.81l-3.59,9.91a55.05,55.05,0,0,0-8.44-2.56,37.58,37.58,0,0,0-8.08-1q-23.49,0-23.49,30,0,14.21,5.73,21.8t17,7.59a51.81,51.81,0,0,0,19.75-4.15v10.34Q499.93,612.85,488.19,612.85Z" transform="translate(-342.14 -499.03)"/><path class="cls-1" d="M558.18,603.21a38.86,38.86,0,0,0,6-.45,39.68,39.68,0,0,0,4.57-1v8.93a21.45,21.45,0,0,1-5.59,1.51,42,42,0,0,1-6.65.6q-22.37,0-22.36-23.56V543.45h-11v-5.63l11-4.85,4.92-16.45h6.75v17.86h22.36v9.07H545.8V588.8q0,7,3.31,10.69A11.5,11.5,0,0,0,558.18,603.21Z" transform="translate(-342.14 -499.03)"/><path class="cls-1" d="M590.48,513.49c0-2.67.66-4.62,2-5.87a7.3,7.3,0,0,1,9.78,0c1.35,1.26,2,3.21,2,5.83s-.69,4.59-2,5.88a6.81,6.81,0,0,1-4.86,1.93,6.74,6.74,0,0,1-4.92-1.93Q590.48,517.44,590.48,513.49Zm12.66,98H591.47V534.38h11.67Z" transform="translate(-342.14 -499.03)"/><path class="cls-1" d="M652.11,611.44l-29.25-77.06h12.51l16.6,45.7q5.63,16,6.61,20.81h.56A156.58,156.58,0,0,1,664,585.46q4.11-11.72,18.45-51.08H695l-29.25,77.06Z" transform="translate(-342.14 -499.03)"/><path class="cls-1" d="M713.73,513.49c0-2.67.66-4.62,2-5.87a7.3,7.3,0,0,1,9.78,0c1.36,1.26,2,3.21,2,5.83s-.68,4.59-2,5.88a7.16,7.16,0,0,1-9.78,0Q713.73,517.44,713.73,513.49Zm12.66,98H714.72V534.38h11.67Z" transform="translate(-342.14 -499.03)"/><path class="cls-1" d="M791.88,611.44h-12V519.26H747.38V508.64h77.06v10.62H791.88Z" transform="translate(-342.14 -499.03)"/><path class="cls-1" d="M880.65,533a45.88,45.88,0,0,1,9.21.84l-1.62,10.83a40,40,0,0,0-8.44-1q-9.34,0-16,7.59t-6.65,18.92v41.34H845.49V534.38h9.64l1.33,14.27H857a34,34,0,0,1,10.34-11.6A23.26,23.26,0,0,1,880.65,533Z" transform="translate(-342.14 -499.03)"/><path class="cls-1" d="M959,611.44l-2.32-11h-.56q-5.77,7.24-11.5,9.81a35.06,35.06,0,0,1-14.31,2.57q-11.46,0-18-5.91t-6.51-16.81q0-23.34,37.34-24.46l13.08-.43v-4.78q0-9.06-3.91-13.39t-12.48-4.33q-9.63,0-21.79,5.91l-3.59-8.93A55,55,0,0,1,927,534.87a54.14,54.14,0,0,1,13.61-1.76q13.77,0,20.42,6.12t6.65,19.62v52.59Zm-26.37-8.23q10.9,0,17.12-6T956,580.5v-7l-11.67.49q-13.92.5-20.07,4.33t-6.15,11.92c0,4.21,1.27,7.43,3.83,9.63S928.05,603.21,932.64,603.21Z" transform="translate(-342.14 -499.03)"/><path class="cls-1" d="M1029.84,612.85q-16.72,0-25.91-10.31t-9.17-29.14q0-19.33,9.31-29.88T1030.62,533a52.55,52.55,0,0,1,11.11,1.2,36.28,36.28,0,0,1,8.72,2.81l-3.59,9.91a55.05,55.05,0,0,0-8.44-2.56,37.66,37.66,0,0,0-8.08-1q-23.49,0-23.49,30,0,14.21,5.73,21.8t17,7.59a51.86,51.86,0,0,0,19.76-4.15v10.34Q1041.58,612.85,1029.84,612.85Z" transform="translate(-342.14 -499.03)"/><path class="cls-1" d="M1086.48,572a136.46,136.46,0,0,1,9.21-11.25l24.89-26.36h13.85l-31.22,32.83,33.4,44.23h-14.13L1095.27,575l-8.79,7.59v28.83H1075V502h11.53v58q0,3.87-.56,12Z" transform="translate(-342.14 -499.03)"/><path class="cls-1" d="M1190.43,612.85q-17.09,0-27-10.41t-9.88-28.9q0-18.63,9.17-29.6t24.65-11q14.47,0,22.92,9.53t8.44,25.13V575h-53.09q.36,13.56,6.86,20.6t18.31,7a62,62,0,0,0,24.61-5.2v10.4a61.57,61.57,0,0,1-11.71,3.84A66,66,0,0,1,1190.43,612.85Zm-3.16-70.11q-9.29,0-14.8,6T1166,565.53h40.29q0-11-4.92-16.91T1187.27,542.74Z" transform="translate(-342.14 -499.03)"/><path class="cls-1" d="M1281.17,533a45.88,45.88,0,0,1,9.21.84l-1.62,10.83a40,40,0,0,0-8.44-1q-9.35,0-16,7.59t-6.65,18.92v41.34H1246V534.38h9.63l1.34,14.27h.56a33.86,33.86,0,0,1,10.34-11.6A23.26,23.26,0,0,1,1281.17,533Z" transform="translate(-342.14 -499.03)"/><path class="cls-2" d="M1362.5,541.31c-6.75,23.14-21.44,60.31-55.68,87.58-36.07,28.72-77,33.06-97.4,34.78-86,7.26-416.46,19.37-865.92,28" transform="translate(-342.14 -499.03)"/></svg>